<?xml version="1.0" standalone="no"?><!DOCTYPE svg PUBLIC "-//W3C//DTD SVG 1.1//EN" "http://www.w3.org/Graphics/SVG/1.1/DTD/svg11.dtd"><svg t="1506710994522" class="icon" style="" viewBox="0 0 1024 1024" version="1.1" xmlns="http://www.w3.org/2000/svg" p-id="33068" xmlns:xlink="http://www.w3.org/1999/xlink" width="200" height="200"><defs><style type="text/css"></style></defs><path d="M970.24 371.2v514.56c0 67.072-54.272 122.368-122.368 122.368h-672.256c-67.584 0-122.368-54.784-122.368-122.368V366.08c0-14.848 10.752-26.624 25.088-29.696l409.6-292.864c1.024-1.024 0.512-2.56 1.536-4.096 6.656-6.656 14.848-8.704 23.552-8.192 8.192-0.512 17.408 1.536 23.552 8.192 1.024 1.024 0.512 2.56 1.536 4.096l410.112 293.376c12.8 4.096 22.016 14.848 22.016 28.672v5.632z m-855.552 300.544v214.016c0 33.792 27.136 60.928 60.928 60.928h672.256c33.792 0 60.928-27.136 60.928-60.928v-502.272L513.024 99.84l-398.336 285.184v286.72z m112.128-206.336L513.024 694.272l286.208-228.864c11.776-11.776 31.232-11.776 43.52 0 11.776 11.776 11.776 31.232 0 43.52l-181.76 144.896 183.296 184.32c10.24 13.824 6.656 32.768-6.656 43.008-13.824 10.24-32.768 6.656-43.008-6.656l-181.76-182.272-78.336 63.488c-6.144 6.144-13.824 8.704-21.504 8.704s-15.36-2.56-21.504-8.704l-78.848-63.488-181.76 182.272c-10.24 13.824-28.672 16.896-43.008 6.656-13.824-10.24-16.896-28.672-6.656-43.008l183.296-184.32-181.248-144.896c-11.776-11.776-11.776-31.232 0-43.52 12.8-12.288 32.256-12.288 43.52 0z" fill="#90B8A2" p-id="33069"></path></svg>